<svg xmlns="http://www.w3.org/2000/svg" width="13.999" height="14" viewBox="0 0 13.999 14">
  <g id="discount_3_" data-name="discount (3)" transform="translate(-0.01 0)">
    <path id="Path_1025" data-name="Path 1025" d="M13.366,7l.614-1.6a.438.438,0,0,0-.133-.5l-1.332-1.08-.269-1.695a.437.437,0,0,0-.364-.363l-1.695-.269L9.109.162a.438.438,0,0,0-.5-.133L7.01.644,5.408.029a.436.436,0,0,0-.5.133L3.832,1.495l-1.695.269a.438.438,0,0,0-.363.363L1.5,3.822.172,4.9a.438.438,0,0,0-.133.5L.654,7,.039,8.6a.436.436,0,0,0,.133.5L1.5,10.177l.269,1.695a.437.437,0,0,0,.363.364l1.695.269,1.08,1.332a.435.435,0,0,0,.5.133l1.6-.613,1.6.614a.438.438,0,0,0,.5-.134l1.079-1.332,1.695-.269a.438.438,0,0,0,.364-.364l.269-1.695L13.848,9.1a.437.437,0,0,0,.133-.5Z" transform="translate(0 0)" fill="#94b92d"/>
    <g id="Group_4922" data-name="Group 4922" transform="translate(4.385 3.5)">
      <path id="Path_1026" data-name="Path 1026" d="M161.334,130.66a1.312,1.312,0,1,1,1.312-1.312A1.314,1.314,0,0,1,161.334,130.66Zm0-1.75a.437.437,0,1,0,.437.437A.438.438,0,0,0,161.334,128.91Z" transform="translate(-160.022 -128.035)" fill="#fafafa"/>
      <path id="Path_1027" data-name="Path 1027" d="M257.334,290.66a1.312,1.312,0,1,1,1.312-1.312A1.314,1.314,0,0,1,257.334,290.66Zm0-1.75a.437.437,0,1,0,.437.437A.439.439,0,0,0,257.334,288.91Z" transform="translate(-253.397 -283.66)" fill="#fafafa"/>
      <path id="Path_1028" data-name="Path 1028" d="M160.473,135.017a.437.437,0,0,1-.355-.692l4.375-6.125a.438.438,0,0,1,.712.508l-4.375,6.125A.439.439,0,0,1,160.473,135.017Z" transform="translate(-160.036 -128.017)" fill="#fafafa"/>
    </g>
  </g>
</svg>
