<svg xmlns="http://www.w3.org/2000/svg" width="9.924" height="17.539" viewBox="0 0 9.924 17.539">
  <path id="Icon_metro-money" data-name="Icon metro-money" d="M16.032,14.124c-2.212-.575-2.923-1.164-2.923-2.09,0-1.062.979-1.808,2.631-1.808,1.734,0,2.378.828,2.436,2.046h2.153A3.879,3.879,0,0,0,17.2,8.561V6.427H14.278v2.1c-1.89.414-3.41,1.632-3.41,3.518,0,2.251,1.866,3.371,4.58,4.024,2.441.585,2.923,1.437,2.923,2.353,0,.667-.473,1.739-2.631,1.739-2.007,0-2.8-.9-2.9-2.046H10.688c.122,2.134,1.715,3.328,3.591,3.732v2.114H17.2V21.871c1.9-.365,3.41-1.462,3.41-3.464,0-2.758-2.368-3.7-4.58-4.282Z" transform="translate(-10.688 -6.427)" fill="#fff"/>
</svg>
