<svg xmlns="http://www.w3.org/2000/svg" width="19.684" height="17.44" viewBox="0 0 19.684 17.44">
  <g id="icon" transform="translate(0 -1.54)">
    <path id="Path_3234" data-name="Path 3234" d="M3.674,19.766a.409.409,0,0,0,.412.44L9.048,20.2l.007-4.066s-.07-.67.581-.67h2.059a.638.638,0,0,1,.722.67l-.009,4.053h4.857a.509.509,0,0,0,.521-.548v-7.5L10.941,6.055,3.674,12.144S3.674,19.766,3.674,19.766Z" transform="translate(-0.998 -1.226)" fill="#fff"/>
    <path id="Path_3235" data-name="Path 3235" d="M0,10.351s.617,1.137,1.963,0L10,3.548l7.539,6.76c1.557,1.123,2.141,0,2.141,0L10,1.54Z" transform="translate(0 0)" fill="#fff"/>
    <path id="Path_3236" data-name="Path 3236" d="M23.107,4.275H21.168l.008,2.352,1.931,1.638Z" transform="translate(-5.747 -0.743)" fill="#fff"/>
  </g>
</svg>
