<svg xmlns="http://www.w3.org/2000/svg" width="19.348" height="13.494" viewBox="0 0 19.348 13.494">
  <g id="noun_Car_1498502" transform="translate(-0.015 -0.25)">
    <g id="Group_36" data-name="Group 36" transform="translate(0.015 0.25)">
      <path id="Path_164" data-name="Path 164" d="M4.084,12.736V13.4a.352.352,0,0,1-.344.344H.665A.336.336,0,0,1,.321,13.4V11.457a14.636,14.636,0,0,1,0-4.746,2.139,2.139,0,0,1,.861-1.4C.936,5.187.665,5.039.42,4.916c-.369-.344-.492-.664.049-.91a3.175,3.175,0,0,1,1.82-.271c.123.148.221.3.344.443.393-.836.812-1.672,1.2-2.484A2.231,2.231,0,0,1,5.289.637a26.053,26.053,0,0,1,8.951,0,2.22,2.22,0,0,1,1.475,1.057c.393.812.812,1.648,1.2,2.484.123-.148.221-.3.344-.443a3.175,3.175,0,0,1,1.82.271c.541.246.418.566.049.91-.246.123-.516.271-.762.393a2.139,2.139,0,0,1,.861,1.4,14.636,14.636,0,0,1,0,4.746V13.4a.336.336,0,0,1-.344.344H15.814a.336.336,0,0,1-.344-.344v-.664A67.6,67.6,0,0,0,4.084,12.736ZM8.412,9.293h2.73c.074,0,.123.1.123.246,0,.123-.049.221-.123.221H8.412c-.074,0-.123-.1-.123-.221C8.289,9.392,8.338,9.293,8.412,9.293Zm-.738-.836h4.205a.217.217,0,0,1,.2.221.225.225,0,0,1-.2.246H7.674a.225.225,0,0,1-.2-.246A.217.217,0,0,1,7.674,8.457ZM7.305,7.6h4.943a.246.246,0,1,1,0,.492H7.305a.246.246,0,1,1,0-.492ZM5.879,1.523a1.248,1.248,0,0,0-1.107.615c-.393.762-.787,1.549-1.18,2.312a86.525,86.525,0,0,1,12.369,0c-.393-.762-.787-1.549-1.18-2.312a1.248,1.248,0,0,0-1.107-.615A29.547,29.547,0,0,0,5.879,1.523ZM17.166,10.4H14.879a.284.284,0,0,0-.3.3.3.3,0,0,0,.3.32h2.287a.322.322,0,0,0,.3-.32A.3.3,0,0,0,17.166,10.4Zm-1.943-.934c.762.025,1.623.025,2.385.025.664-.246.885-1.377.516-1.451-.787.074-1.6.148-2.361.221C15.346,8.531,14.928,8.9,15.223,9.466ZM2.387,10.4H4.674a.284.284,0,0,1,.3.3.3.3,0,0,1-.3.32H2.387a.322.322,0,0,1-.3-.32A.3.3,0,0,1,2.387,10.4ZM4.33,9.466c-.762.025-1.623.025-2.385.025-.664-.246-.885-1.377-.516-1.451.787.074,1.6.148,2.361.221C4.207,8.531,4.625,8.9,4.33,9.466Z" transform="translate(-0.102 -0.25)" fill="#fff" fill-rule="evenodd"/>
      <rect id="Rectangle_106" data-name="Rectangle 106" width="2.032" height="0.724" rx="0.362" transform="translate(8.654 1.297)" fill="#fff"/>
    </g>
  </g>
</svg>
