<svg xmlns="http://www.w3.org/2000/svg" width="16.993" height="22.091" viewBox="0 0 16.993 22.091">
  <path id="Icon_ionic-ios-lock" data-name="Icon ionic-ios-lock" d="M21.619,11.022H20.344V8.542a5.1,5.1,0,1,0-10.2-.069v2.549H8.874A2.13,2.13,0,0,0,6.75,13.146v10.2a2.13,2.13,0,0,0,2.124,2.124H21.619a2.13,2.13,0,0,0,2.124-2.124v-10.2A2.13,2.13,0,0,0,21.619,11.022ZM15.99,17.649V21.3a.761.761,0,0,1-.706.765.744.744,0,0,1-.781-.743V17.649a1.7,1.7,0,1,1,1.487,0Zm2.868-6.627H11.635V8.473a3.611,3.611,0,0,1,7.222,0Z" transform="translate(-6.75 -3.374)" fill="#a7a7a7"/>
</svg>
