<svg id="Group_4769" data-name="Group 4769" xmlns="http://www.w3.org/2000/svg" width="15.832" height="15.834" viewBox="0 0 15.832 15.834">
  <g id="Group_4768" data-name="Group 4768" transform="translate(0)">
    <circle id="Ellipse_39" data-name="Ellipse 39" cx="1.365" cy="1.365" r="1.365" transform="translate(6.552 6.552)" fill="#fff"/>
    <path id="Path_3632" data-name="Path 3632" d="M15.513,6.565l-1.907-.358a5.867,5.867,0,0,0-.456-1.1l1.1-1.613a.409.409,0,0,0-.047-.5L12.846,1.627a.409.409,0,0,0-.5-.047l-1.614,1.1a5.9,5.9,0,0,0-1.138-.465L9.237.322A.409.409,0,0,0,8.849,0H6.925a.41.41,0,0,0-.388.322l-.36,1.916a5.882,5.882,0,0,0-1.092.456L3.492,1.6a.409.409,0,0,0-.5.047L1.63,3.011a.41.41,0,0,0-.047.5l1.1,1.6a5.913,5.913,0,0,0-.449,1.091L.324,6.565A.41.41,0,0,0,0,6.953V8.877a.411.411,0,0,0,.322.388l1.906.357a5.9,5.9,0,0,0,.459,1.113L1.6,12.321a.409.409,0,0,0,.047.5l1.361,1.361a.41.41,0,0,0,.5.047L5.1,13.146a5.923,5.923,0,0,0,1.08.45l.359,1.917a.41.41,0,0,0,.388.321H8.85a.41.41,0,0,0,.388-.321l.356-1.9a5.961,5.961,0,0,0,1.126-.459l1.6,1.1a.409.409,0,0,0,.5-.047l1.36-1.36a.409.409,0,0,0,.047-.5l-1.092-1.6a5.921,5.921,0,0,0,.466-1.127l1.906-.357a.411.411,0,0,0,.321-.388V6.953A.408.408,0,0,0,15.513,6.565ZM7.919,11.22a3.3,3.3,0,1,1,3.3-3.3A3.3,3.3,0,0,1,7.919,11.22Z" transform="translate(-0.002)" fill="#fff"/>
  </g>
</svg>
